<svg width="46.000000" height="56.000000" viewBox="0 0 46 56" fill="none" xmlns="http://www.w3.org/2000/svg" xmlns:xlink="http://www.w3.org/1999/xlink">
	<desc>
			Created with Pixso.
	</desc>
	<defs>
		<clipPath id="clip2_11">
			<rect id="尺寸1" width="80.000000" height="80.000000" transform="translate(-15.000000 -12.000000)" fill="white"/>
		</clipPath>
	</defs>
	<path id="合并" d="M0 3C0 1.32 1.32 0 3 0L25 0C26.68 0 28 1.32 28 3C28 4.68 26.68 6 25 6L6 6L6 50L40 50L40 23C40 21.32 41.32 20 43 20C44.68 20 46 21.32 46 23L46 53C46 54.68 44.68 56 43 56C42.8293 56 42.6623 55.9864 42.5 55.9601C42.3377 55.9864 42.1707 56 42 56L3 56C1.32 56 0 54.68 0 53L0 3ZM30 3C30 1.32 31.32 0 33 0L43 0C44.68 0 46 1.32 46 3L46 13C46 14.68 44.68 16 43 16L16 16L16 25C16 26.68 14.68 28 13 28C11.32 28 10 26.68 10 25L10 14C10 13.8293 10.0136 13.6623 10.0399 13.5C10.0136 13.3377 10 13.1707 10 13C10 11.32 11.32 10 13 10L30 10L30 3ZM40 6L36 6L36 10L40 10L40 6ZM21 26C19.32 26 18 24.68 18 23C18 21.32 19.32 20 21 20L33 20C34.68 20 36 21.32 36 23L36 43C36 44.68 34.68 46 33 46L13 46C11.32 46 10 44.68 10 43L10 33C10 31.32 11.32 30 13 30L23 30C24.68 30 26 31.32 26 33C26 34.68 24.68 36 23 36L16 36L16 40L30 40L30 26L21 26Z" clip-rule="evenodd" fill-rule="evenodd" fill="#000000" fill-opacity="1.000000"/>
</svg>
