<svg width="53.000000" height="56.000000" viewBox="0 0 53 56" fill="none" xmlns="http://www.w3.org/2000/svg" xmlns:xlink="http://www.w3.org/1999/xlink">
	<path id="合并" d="M37 3C37 1.32 38.32 0 40 0L49 0C49.1707 0 49.3377 0.0136318 49.5 0.0398865C49.6623 0.0136337 49.8293 1.90735e-06 50 1.90735e-06C51.68 1.90735e-06 53 1.32 53 3L53 13C53 14.68 51.68 16 50 16L16 16L16 25C16 26.68 14.68 28 13 28C11.32 28 10 26.68 10 25L10 14C10 13.8293 10.0136 13.6623 10.0399 13.5C10.0136 13.3377 10 13.1707 10 13C10 11.32 11.32 10 13 10L37 10L37 3L37 3ZM47 6L43 6L43 10L47 10L47 6ZM0 3C0 1.32 1.32 1.90735e-06 3 1.90735e-06L30 1.90735e-06C31.68 1.90735e-06 33 1.32 33 3C33 4.68 31.68 6 30 6L6 6L6 50L47 50L47 23C47 21.32 48.32 20 50 20C51.68 20 53 21.32 53 23L53 53C53 54.68 51.68 56 50 56L3 56C1.32 56 0 54.68 0 53L0 3ZM21 26C19.32 26 18 24.68 18 23C18 21.32 19.32 20 21 20L39 20C40.68 20 42 21.32 42 23L42 43C42 44.68 40.68 46 39 46L13 46C11.32 46 10 44.68 10 43L10 33C10 31.32 11.32 30 13 30L29 30C30.68 30 32 31.32 32 33C32 34.68 30.68 36 29 36L16 36L16 40L36 40L36 26L21 26Z" clip-rule="evenodd" fill-rule="evenodd" fill="#000000" fill-opacity="1.000000"/>
</svg>
